<svg xmlns="http://www.w3.org/2000/svg" viewBox="0 0 100 100">
  <!-- Ferradura / Horseshoe -->
  <path d="M50,8 C27,8 10,25 10,48 C10,65 20,78 32,86 L32,72 C24,65 18,57 18,48 C18,29 32,16 50,16 C68,16 82,29 82,48 C82,57 76,65 68,72 L68,86 C80,78 90,65 90,48 C90,25 73,8 50,8 Z" fill="#8B6410"/>
  <rect x="28" y="72" width="16" height="22" rx="3" fill="#8B6410"/>
  <rect x="56" y="72" width="16" height="22" rx="3" fill="#8B6410"/>
  <!-- Furos dos pregos -->
  <circle cx="34" cy="30" r="4" fill="#f5c842"/>
  <circle cx="50" cy="16" r="4" fill="#f5c842"/>
  <circle cx="66" cy="30" r="4" fill="#f5c842"/>
</svg>
